<svg width="24" height="24" viewBox="0 0 24 24" fill="none" xmlns="http://www.w3.org/2000/svg">
<g id="COCO/Bold/Plus">
<path id="Vector" fill-rule="evenodd" clip-rule="evenodd" d="M8.17938 7.82062C8.54384 7.45616 9.13473 7.45616 9.49919 7.82062L12.3588 10.6802L15.2183 7.82062C15.5828 7.45616 16.1737 7.45616 16.5381 7.82062C16.9026 8.18507 16.9026 8.77597 16.5381 9.14042L13.6786 12L16.5381 14.8596C16.9026 15.224 16.9026 15.8149 16.5381 16.1794C16.1737 16.5438 15.5828 16.5438 15.2183 16.1794L12.3588 13.3198L9.49919 16.1794C9.13473 16.5438 8.54384 16.5438 8.17938 16.1794C7.81493 15.8149 7.81493 15.224 8.17938 14.8596L11.039 12L8.17938 9.14042C7.81493 8.77597 7.81493 8.18507 8.17938 7.82062Z" fill="white"/>
</g>
</svg>
