<svg width="40" height="41" viewBox="0 0 40 41" fill="none" xmlns="http://www.w3.org/2000/svg">
<g id="vuesax/outline/gallery">
<g id="gallery">
<path id="Vector" d="M24.9997 38.6737H14.9997C5.94967 38.6737 2.08301 34.807 2.08301 25.757V15.757C2.08301 6.707 5.94967 2.84033 14.9997 2.84033H24.9997C34.0497 2.84033 37.9163 6.707 37.9163 15.757V25.757C37.9163 34.807 34.0497 38.6737 24.9997 38.6737ZM14.9997 5.34033C7.31634 5.34033 4.58301 8.07367 4.58301 15.757V25.757C4.58301 33.4403 7.31634 36.1737 14.9997 36.1737H24.9997C32.683 36.1737 35.4163 33.4403 35.4163 25.757V15.757C35.4163 8.07367 32.683 5.34033 24.9997 5.34033H14.9997Z" fill="white"/>
<path id="Vector_2" d="M15.0003 18.6735C12.467 18.6735 10.417 16.6235 10.417 14.0902C10.417 11.5568 12.467 9.50684 15.0003 9.50684C17.5337 9.50684 19.5837 11.5568 19.5837 14.0902C19.5837 16.6235 17.5337 18.6735 15.0003 18.6735ZM15.0003 12.0068C13.8503 12.0068 12.917 12.9402 12.917 14.0902C12.917 15.2402 13.8503 16.1735 15.0003 16.1735C16.1503 16.1735 17.0837 15.2402 17.0837 14.0902C17.0837 12.9402 16.1503 12.0068 15.0003 12.0068Z" fill="white"/>
<path id="Vector_3" d="M4.44995 33.5899C4.04995 33.5899 3.64995 33.3899 3.41661 33.0399C3.03328 32.4733 3.18328 31.6899 3.76661 31.3066L11.9833 25.7899C13.7833 24.5733 16.2666 24.7233 17.8999 26.1066L18.4499 26.5899C19.2833 27.3066 20.6999 27.3066 21.5166 26.5899L28.4499 20.6399C30.2166 19.1233 32.9999 19.1233 34.7833 20.6399L37.4999 22.9733C38.0166 23.4233 38.0833 24.2066 37.6333 24.7399C37.1833 25.2566 36.3999 25.3233 35.8666 24.8733L33.1499 22.5399C32.3166 21.8233 30.8999 21.8233 30.0666 22.5399L23.1333 28.4899C21.3666 30.0066 18.5833 30.0066 16.7999 28.4899L16.2499 28.0066C15.4833 27.3566 14.2166 27.2899 13.3666 27.8733L5.14995 33.3899C4.93328 33.5233 4.68328 33.5899 4.44995 33.5899Z" fill="white"/>
</g>
</g>
</svg>
